<svg xmlns="http://www.w3.org/2000/svg" viewBox="0 0 24 24" fill="none">
  <!-- Red de caza (estado "Enmarañado" del Bestiario) -->
  <defs>
    <clipPath id="aro">
      <circle cx="12" cy="12" r="9.5"/>
    </clipPath>
  </defs>
  <g clip-path="url(#aro)" stroke="#e2c47f" stroke-width="1.3" stroke-linecap="round">
    <path d="M-2 8 L26 -20 M-2 14 L26 -14 M-2 20 L26 -8 M-2 26 L26 -2 M-2 32 L26 4 M-2 38 L26 10 M-2 44 L26 16"/>
    <path d="M-2 16 L26 44 M-2 10 L26 38 M-2 4 L26 32 M-2 -2 L26 26 M-2 -8 L26 20 M-2 -14 L26 14 M-2 -20 L26 8"/>
  </g>
  <circle cx="12" cy="12" r="9.5" stroke="#c5a059" stroke-width="2"/>
  <!-- Nudos -->
  <g fill="#f5e3b0">
    <circle cx="12" cy="6" r="1.1"/>
    <circle cx="6" cy="12" r="1.1"/>
    <circle cx="12" cy="12" r="1.1"/>
    <circle cx="18" cy="12" r="1.1"/>
    <circle cx="12" cy="18" r="1.1"/>
  </g>
</svg>
